<svg width="83" height="86" viewBox="0 0 83 86" fill="none" xmlns="http://www.w3.org/2000/svg">
<path d="M71.8944 19.3395L70.6248 24.0779L62.3325 21.856L63.6022 17.1176L35.1717 9.49964L33.9021 14.2381L25.6098 12.0162L26.8795 7.27774L17.4027 4.73843L13.9111 17.7691L77.8797 34.9094L81.3712 21.8788L71.8944 19.3395Z" fill="url(#paint0_linear_25_99)"/>
<path d="M23.3879 20.3084L13.9111 17.7691L0.262304 68.707L64.2309 85.8473L77.8797 34.9094L68.4028 32.3701L60.1106 30.1482L31.6801 22.5303L23.3879 20.3084Z" fill="url(#paint1_linear_25_99)"/>
<path d="M55.5195 37.8056L53.1503 37.1708L44.8581 34.9489L42.4889 34.314L34.1966 32.0921L31.8274 31.4573L21.166 28.6006L18.3093 39.262L17.6745 41.6312L15.4526 49.9235L14.8177 52.2927L11.961 62.9541L22.6224 65.8108L24.9916 66.4456L33.2839 68.6675L35.6531 69.3024L43.9453 71.5243L46.3145 72.1591L56.9759 75.0158L59.8327 64.3544L60.4675 61.9852L62.6894 53.6929L63.3242 51.3237L66.1809 40.6623L55.5195 37.8056ZM44.2232 37.3181L52.5155 39.54L50.2936 47.8322L42.0013 45.6103L44.2232 37.3181ZM47.4368 58.4936L39.1446 56.2717L41.3665 47.9795L49.6587 50.2014L47.4368 58.4936ZM30.7051 45.1228L38.9973 47.3447L36.7754 55.6369L28.4832 53.415L30.7051 45.1228ZM33.5618 34.4613L41.854 36.6832L39.6321 44.9755L31.3399 42.7536L33.5618 34.4613ZM22.9004 31.6046L31.1926 33.8265L28.9707 42.1187L20.6785 39.8968L22.9004 31.6046ZM20.0437 42.2661L28.3359 44.4879L26.114 52.7802L17.8218 50.5583L20.0437 42.2661ZM23.2573 63.4416L14.965 61.2197L17.1869 52.9275L25.4792 55.1494L23.2573 63.4416ZM33.9187 66.2983L25.6265 64.0764L27.8484 55.7842L36.1406 58.0061L33.9187 66.2983ZM44.5801 69.155L36.2879 66.9332L38.5098 58.6409L46.802 60.8628L44.5801 69.155ZM55.2416 72.0118L46.9493 69.7899L49.1712 61.4976L57.4635 63.7195L55.2416 72.0118ZM58.0983 61.3503L49.8061 59.1284L52.028 50.8362L60.3202 53.0581L58.0983 61.3503ZM52.6628 48.467L54.8847 40.1748L63.1769 42.3967L60.955 50.6889L52.6628 48.467Z" fill="url(#paint2_linear_25_99)"/>
<path d="M36.4414 4.76122L28.1492 2.53932L25.6098 12.0161L33.9021 14.238L36.4414 4.76122Z" fill="#36495E"/>
<path d="M73.1641 14.601L64.8719 12.3792L62.3325 21.856L70.6248 24.0779L73.1641 14.601Z" fill="#36495E"/>
<defs>
<linearGradient id="paint0_linear_25_99" x1="83.5" y1="20" x2="19.5" y2="22.5" gradientUnits="userSpaceOnUse">
<stop stop-color="#B83049"/>
<stop offset="1" stop-color="#E1575B"/>
</linearGradient>
<linearGradient id="paint1_linear_25_99" x1="45.8954" y1="26.3392" x2="32" y2="86" gradientUnits="userSpaceOnUse">
<stop stop-color="#FCFEFF"/>
<stop offset="1" stop-color="#F1F4F6"/>
</linearGradient>
<linearGradient id="paint2_linear_25_99" x1="43.6735" y1="34.6314" x2="34.4685" y2="68.9849" gradientUnits="userSpaceOnUse">
<stop stop-color="#AFB6BF"/>
<stop offset="1" stop-color="#778596"/>
</linearGradient>
</defs>
</svg>
