<svg width="134" height="103" viewBox="0 0 134 103" fill="none" xmlns="http://www.w3.org/2000/svg">
<path d="M133.72 22.8294C133.207 19.396 130.257 16.9242 126.794 16.9242H119.804H70.6774L68.6383 14.5115L61.4829 4.86241C59.3284 2.32485 56.1567 0.724274 52.8191 0.724274H42.2084H16.3563C13.7583 0.724274 11.2914 1.94316 9.60986 3.93079C7.93366 5.93006 7.21861 8.65824 7.65668 11.2209L7.62365 16.9242H6.98914C4.94513 16.9242 3.01165 17.7502 1.69297 19.3003C0.354164 20.8507 -0.230222 22.8701 0.0825543 24.8891L0.323611 95.3278C1.00823 99.7483 4.81435 103 9.2845 103H126.803C128.842 103 130.775 102.104 132.095 100.568C133.424 99.0229 134.017 97.0192 133.72 95.0061L133.689 94.8513L133.72 22.8294Z" fill="#7CABF4"/>
</svg>
