<svg width="120" height="83" viewBox="0 0 120 83" fill="none" xmlns="http://www.w3.org/2000/svg">
<path d="M108.171 18.0579C107.758 15.2907 105.38 13.2984 102.588 13.2984H96.9547H57.3591L55.7156 11.3538L49.1424 3.57671C47.4059 1.53146 44.8496 0.241409 42.1595 0.241409H33.6074H12.7707C10.6768 0.241409 8.68852 1.22382 7.33319 2.82584C5.98219 4.43723 5.40587 6.63612 5.75895 8.70157L6.53832 13.2984H6.02691C4.37946 13.2984 2.82108 13.9642 1.75824 15.2135C0.679176 16.4631 0.208165 18.0908 0.460261 19.718L12.4151 76.491C12.9669 80.0539 16.0346 82.6748 19.6375 82.6748H114.357C116 82.6748 117.558 81.9524 118.622 80.715C119.693 79.4693 120.171 77.8543 119.932 76.2317L119.907 76.1069L108.171 18.0579Z" fill="url(#paint0_linear_29_221)"/>
<path fill-rule="evenodd" clip-rule="evenodd" d="M52.7766 28.6445C53.8479 28.3916 54.9758 28.6574 55.8214 29.3621L66.4084 38.1846C67.8933 39.422 68.094 41.629 66.8565 43.114C65.619 44.599 63.412 44.7996 61.9271 43.5621L59.3376 41.4043L64.0486 61.7624C64.4844 63.6456 63.311 65.5255 61.4278 65.9613C59.5446 66.3971 57.6646 65.2237 57.2288 63.3405L52.5527 43.1328L51.4938 45.5531C50.719 47.3241 48.6553 48.1316 46.8844 47.3568C45.1135 46.582 44.3059 44.5183 45.0807 42.7474L50.3742 30.648C50.8154 29.6395 51.7053 28.8974 52.7766 28.6445Z" fill="url(#paint1_linear_29_221)"/>
<defs>
<linearGradient id="paint0_linear_29_221" x1="60.193" y1="0.241409" x2="26" y2="98.5" gradientUnits="userSpaceOnUse">
<stop stop-color="#84B4FF"/>
<stop offset="1" stop-color="#6593DB"/>
</linearGradient>
<linearGradient id="paint1_linear_29_221" x1="56" y1="24" x2="54.5" y2="69.5" gradientUnits="userSpaceOnUse">
<stop stop-color="#5689D9"/>
<stop offset="1" stop-color="#4172BD"/>
</linearGradient>
</defs>
</svg>
