<svg width="80" height="80" viewBox="0 0 80 80" fill="none" xmlns="http://www.w3.org/2000/svg">
<path d="M34.6507 75C34.6507 77.7614 36.8893 80 39.6507 80H41.3493C44.1107 80 46.3493 77.7614 46.3493 75V45.3493H34.6507L34.6507 75Z" fill="#2B323B"/>
<path d="M75 45.3493C77.7614 45.3493 80 43.1107 80 40.3493V38.6507C80 35.8893 77.7614 33.6507 75 33.6507H46.3493L46.3493 5C46.3493 2.23858 44.1107 4.81991e-07 41.3493 3.41296e-07L39.6507 2.5475e-07C36.8893 1.14056e-07 34.6507 2.23858 34.6507 5V33.6507H5C2.23858 33.6507 0 35.8893 0 38.6507V40.3493C0 43.1107 2.23858 45.3493 5 45.3493H34.6507H46.3493H75Z" fill="#2B323B"/>
</svg>
